<svg width="16" height="16" viewBox="0 0 16 16" fill="none" xmlns="http://www.w3.org/2000/svg">
<path d="M8.66665 4.66667H3.46665C2.71991 4.66667 2.34654 4.66667 2.06133 4.81199C1.81044 4.93982 1.60647 5.1438 1.47864 5.39468C1.33331 5.67989 1.33331 6.05326 1.33331 6.8V9.2C1.33331 9.94674 1.33331 10.3201 1.47864 10.6053C1.60647 10.8562 1.81044 11.0602 2.06133 11.188C2.34654 11.3333 2.71991 11.3333 3.46665 11.3333H8.66665M11.3333 4.66667H12.5333C13.28 4.66667 13.6534 4.66667 13.9386 4.81199C14.1895 4.93982 14.3935 5.1438 14.5213 5.39468C14.6666 5.67989 14.6666 6.05326 14.6666 6.8V9.2C14.6666 9.94674 14.6666 10.3201 14.5213 10.6053C14.3935 10.8562 14.1895 11.0602 13.9386 11.188C13.6534 11.3333 13.28 11.3333 12.5333 11.3333H11.3333M11.3333 14L11.3333 2M13 2.00001L9.66665 2M13 14L9.66665 14" stroke="#717680" stroke-width="1.33" stroke-linecap="round" stroke-linejoin="round"/>
</svg>
